<svg width="46" height="47" viewBox="0 0 46 47" fill="none" xmlns="http://www.w3.org/2000/svg">
<path d="M22.7253 25.8242C29.8564 25.8242 35.6373 20.0432 35.6373 12.9121C35.6373 5.78094 29.8564 0 22.7253 0C15.5941 0 9.81316 5.78094 9.81316 12.9121C9.81316 20.0432 15.5941 25.8242 22.7253 25.8242Z" fill="white"/>
<path d="M44.9608 39.3448C42.9188 34.5934 39.0616 30.6338 34.0699 28.2581C32.7086 27.7301 31.1203 27.7301 29.9859 28.522C27.7169 30.1059 25.448 30.8978 22.7253 30.8978C20.0026 30.8978 17.7336 30.1059 15.4647 28.522C14.3302 27.9941 12.742 27.7301 11.3806 28.522C6.38896 30.8978 2.53177 34.8573 0.489731 39.6088C-1.09852 43.0404 1.3973 47 4.8007 47H40.6498C44.0532 47 46.5491 43.0404 44.9608 39.3448Z" fill="white"/>
</svg>
