<svg width="28" height="33" viewBox="0 0 28 33" fill="none" xmlns="http://www.w3.org/2000/svg">
<path d="M13.984 33C12.1466 33.0007 10.327 32.6391 8.62936 31.9359C6.93175 31.2328 5.38942 30.2018 4.09061 28.902C2.7918 27.6022 1.76199 26.0591 1.06008 24.361C0.358178 22.6629 -0.00204977 20.843 8.77313e-06 19.0055V13.984C8.77313e-06 10.2752 1.47332 6.71834 4.09584 4.09583C6.71835 1.47331 10.2752 0 13.984 0C17.6928 0 21.2497 1.47331 23.8723 4.09583C26.4948 6.71834 27.9681 10.2752 27.9681 13.984V19.0055C27.9701 20.843 27.6099 22.6629 26.908 24.361C26.2061 26.0591 25.1763 27.6022 23.8775 28.902C22.5787 30.2018 21.0363 31.2328 19.3387 31.9359C17.6411 32.6391 15.8215 33.0007 13.984 33Z" fill="#FFD8C9"/>
</svg>
