<svg width="14" height="17" viewBox="0 0 14 17" fill="none" xmlns="http://www.w3.org/2000/svg">
<path d="M5.58102 15.1975C5.66827 15.4947 5.84943 15.7557 6.09739 15.9413C6.34535 16.1269 6.64677 16.2273 6.95652 16.2273C7.26627 16.2273 7.56769 16.1269 7.81565 15.9413C8.06362 15.7557 8.24478 15.4947 8.33203 15.1975" fill="#FFC700"/>
<path d="M5.58102 15.1975C5.66827 15.4947 5.84943 15.7557 6.09739 15.9413C6.34535 16.1269 6.64677 16.2273 6.95652 16.2273C7.26627 16.2273 7.56769 16.1269 7.81565 15.9413C8.06362 15.7557 8.24478 15.4947 8.33203 15.1975" stroke="#FFC700" stroke-width="1.5" stroke-linecap="round" stroke-linejoin="round"/>
<path d="M6.95455 2.31824V0.772727V2.31824Z" fill="#FFC700"/>
<path d="M6.95455 2.31824V0.772727" stroke="#FFC700" stroke-width="1.5" stroke-linecap="round" stroke-linejoin="round"/>
<path d="M6.95478 2.31824C8.3211 2.31824 9.63145 2.86101 10.5976 3.82714C11.5637 4.79327 12.1065 6.10363 12.1065 7.46995C12.1065 12.3098 13.1368 13.1368 13.1368 13.1368H0.772727C0.772727 13.1368 1.80307 11.8207 1.80307 7.46995C1.80307 6.10363 2.34584 4.79327 3.31197 3.82714C4.2781 2.86101 5.58846 2.31824 6.95478 2.31824Z" fill="#FFC700" stroke="#FFC700" stroke-width="1.5" stroke-linecap="round" stroke-linejoin="round"/>
</svg>
