<svg width="29" height="16" viewBox="0 0 29 16" fill="none" xmlns="http://www.w3.org/2000/svg">
<path d="M28.5964 14.9441V14.5696C28.5964 6.79381 22.5057 0.209054 14.7299 0.00620574C12.8196 -0.0500714 10.9175 0.276889 9.13565 0.967786C7.35383 1.65868 5.72847 2.69952 4.35549 4.02886C2.98252 5.3582 1.88975 6.94911 1.14169 8.7077C0.393623 10.4663 0.00542336 12.3569 0 14.268V14.9597C0 15.2356 0.109598 15.5002 0.304682 15.6953C0.499766 15.8904 0.764356 16 1.04025 16H4.87875C5.43778 16.002 5.98782 15.8594 6.47542 15.586C6.96302 15.3126 7.37159 14.9176 7.66141 14.4396L8.97212 12.2603H15.7337C18.0223 14.5176 20.935 15.9948 24.1649 15.9948H27.5145C27.6555 16.0004 27.7961 15.9774 27.9278 15.927C28.0596 15.8766 28.1797 15.7999 28.2809 15.7016C28.3821 15.6033 28.4622 15.4855 28.5165 15.3553C28.5707 15.2251 28.5979 15.0852 28.5964 14.9441Z" fill="#393C54"/>
</svg>
