<svg width="24" height="24" viewBox="0 0 24 24" fill="none" xmlns="http://www.w3.org/2000/svg">
<path d="M23.5979 8.7455L12.0053 0L0.402133 8.7455C0.162259 8.96683 0.0180213 9.27286 0 9.59872V22.9537C0.000844019 23.2301 0.111023 23.4949 0.306479 23.6904C0.501934 23.8858 0.766786 23.996 1.0432 23.9968H8V18.4007C8 17.34 8.42143 16.3227 9.17157 15.5727C9.92172 14.8227 10.9391 14.4013 12 14.4013C13.0609 14.4013 14.0783 14.8227 14.8284 15.5727C15.5786 16.3227 16 17.34 16 18.4007V24H22.9557C23.2322 23.9992 23.4972 23.889 23.6928 23.6936C23.8885 23.4982 23.9989 23.2334 24 22.9569V9.59872C23.9815 9.27297 23.8374 8.9671 23.5979 8.7455Z" fill="#FF8A00"/>
</svg>
