<svg width="24" height="24" viewBox="0 0 24 24" fill="none" xmlns="http://www.w3.org/2000/svg">
<path d="M11.7496 5.13945C11.0753 5.13098 10.4029 5.21167 9.74974 5.37944C6.83699 6.10918 4.02735 8.38552 2.13144 10.7036C1.88497 11.017 1.75098 11.404 1.75098 11.8027C1.75098 12.2013 1.88497 12.5884 2.13144 12.9017C3.99801 15.1807 6.80055 17.4971 9.75329 18.2348C10.4055 18.4009 11.0767 18.4807 11.7496 18.4721C12.4238 18.481 13.0962 18.4012 13.7495 18.2348C16.7023 17.4997 19.5075 15.1825 21.3705 12.9017C21.617 12.5884 21.751 12.2013 21.751 11.8027C21.751 11.404 21.617 11.017 21.3705 10.7036C19.4737 8.38463 16.6596 6.10829 13.7495 5.37855C13.0963 5.21122 12.4239 5.13083 11.7496 5.13945V5.13945Z" stroke="#0090FF" stroke-width="2" stroke-linecap="round" stroke-linejoin="round"/>
<circle cx="11.7504" cy="11.5557" r="1.9428" stroke="#0090FF" stroke-width="2" stroke-linecap="round" stroke-linejoin="round"/>
</svg>
