<svg width="62" height="62" viewBox="0 0 62 62" fill="none" xmlns="http://www.w3.org/2000/svg">
<path d="M31 62C48.1208 62 62 48.1208 62 31C62 13.8792 48.1208 0 31 0C13.8792 0 0 13.8792 0 31C0 48.1208 13.8792 62 31 62Z" fill="#FF8475"/>
<path opacity="0.4" d="M31 55.8C44.6966 55.8 55.8 44.6966 55.8 31C55.8 17.3033 44.6966 6.2 31 6.2C17.3033 6.2 6.2 17.3033 6.2 31C6.2 44.6966 17.3033 55.8 31 55.8Z" fill="#F85565"/>
<path d="M31 18.5587C35.2574 18.5587 38.7087 15.1074 38.7087 10.85C38.7087 6.59263 35.2574 3.14134 31 3.14134C26.7426 3.14134 23.2913 6.59263 23.2913 10.85C23.2913 15.1074 26.7426 18.5587 31 18.5587Z" fill="white"/>
<path opacity="0.1" d="M31 18.5587C35.2574 18.5587 38.7087 15.1074 38.7087 10.85C38.7087 6.59263 35.2574 3.14134 31 3.14134C26.7426 3.14134 23.2913 6.59263 23.2913 10.85C23.2913 15.1074 26.7426 18.5587 31 18.5587Z" fill="#356CB6"/>
<path d="M31 7.95666C35.156 7.95666 39.1419 9.60765 42.0807 12.5464C45.0195 15.4852 46.6705 19.4711 46.6705 23.6272V25.9315C46.6705 28.7351 45.5567 31.4239 43.5743 33.4063C41.5918 35.3887 38.9031 36.5025 36.0995 36.5025H25.9005C23.0969 36.5025 20.4081 35.3887 18.4257 33.4063C16.4432 31.4239 15.3295 28.7351 15.3295 25.9315V23.6272C15.3295 19.4711 16.9805 15.4852 19.9193 12.5464C22.8581 9.60765 26.8439 7.95666 31 7.95666Z" fill="white"/>
<path d="M43.9166 35.1333C45.9141 35.1333 47.5333 33.5141 47.5333 31.5166C47.5333 29.5192 45.9141 27.9 43.9166 27.9C41.9192 27.9 40.3 29.5192 40.3 31.5166C40.3 33.5141 41.9192 35.1333 43.9166 35.1333Z" fill="#FBC0AA"/>
<path d="M31 62C37.426 62.0075 43.6939 60.008 48.9283 56.2805L47.2078 50.964C46.8511 49.964 46.195 49.0983 45.3288 48.4844C44.4626 47.8706 43.4283 47.5385 42.3666 47.5333H19.6591C18.5931 47.5332 17.5531 47.8628 16.6817 48.477C15.8104 49.0912 15.1503 49.9599 14.7922 50.964L13.0717 56.2805C18.3061 60.008 24.574 62.0075 31 62Z" fill="#00ADFE"/>
<path d="M21.979 60.6618C27.8607 62.4459 34.1393 62.4459 40.021 60.6618L38.75 47.5333H23.25L21.979 60.6618Z" fill="#356CB6"/>
<path d="M26.8667 50.1166C27.7227 50.1166 28.4166 49.4227 28.4166 48.5666C28.4166 47.7106 27.7227 47.0166 26.8667 47.0166C26.0106 47.0166 25.3167 47.7106 25.3167 48.5666C25.3167 49.4227 26.0106 50.1166 26.8667 50.1166Z" fill="white"/>
<path d="M27.3833 52.1833C28.2394 52.1833 28.9333 51.4893 28.9333 50.6333C28.9333 49.7773 28.2394 49.0833 27.3833 49.0833C26.5273 49.0833 25.8333 49.7773 25.8333 50.6333C25.8333 51.4893 26.5273 52.1833 27.3833 52.1833Z" fill="white"/>
<path d="M35.1333 50.1166C35.9894 50.1166 36.6833 49.4227 36.6833 48.5666C36.6833 47.7106 35.9894 47.0166 35.1333 47.0166C34.2773 47.0166 33.5833 47.7106 33.5833 48.5666C33.5833 49.4227 34.2773 50.1166 35.1333 50.1166Z" fill="white"/>
<path d="M34.6167 52.1833C35.4727 52.1833 36.1667 51.4893 36.1667 50.6333C36.1667 49.7773 35.4727 49.0833 34.6167 49.0833C33.7606 49.0833 33.0667 49.7773 33.0667 50.6333C33.0667 51.4893 33.7606 52.1833 34.6167 52.1833Z" fill="white"/>
<path d="M28.9333 53.7333C29.7894 53.7333 30.4833 53.0393 30.4833 52.1833C30.4833 51.3273 29.7894 50.6333 28.9333 50.6333C28.0773 50.6333 27.3833 51.3273 27.3833 52.1833C27.3833 53.0393 28.0773 53.7333 28.9333 53.7333Z" fill="white"/>
<path d="M31 54.25C31.856 54.25 32.55 53.556 32.55 52.7C32.55 51.8439 31.856 51.15 31 51.15C30.1439 51.15 29.45 51.8439 29.45 52.7C29.45 53.556 30.1439 54.25 31 54.25Z" fill="white"/>
<path d="M33.0666 53.7333C33.9227 53.7333 34.6166 53.0393 34.6166 52.1833C34.6166 51.3273 33.9227 50.6333 33.0666 50.6333C32.2106 50.6333 31.5167 51.3273 31.5167 52.1833C31.5167 53.0393 32.2106 53.7333 33.0666 53.7333Z" fill="white"/>
<path d="M31 43.4V48.5666" stroke="#FBC0AA" stroke-width="7.23334" stroke-linecap="round" stroke-linejoin="round"/>
<path d="M18.0833 35.1333C20.0808 35.1333 21.7 33.5141 21.7 31.5166C21.7 29.5192 20.0808 27.9 18.0833 27.9C16.0859 27.9 14.4667 29.5192 14.4667 31.5166C14.4667 33.5141 16.0859 35.1333 18.0833 35.1333Z" fill="#FBC0AA"/>
<path d="M31 47.0167C27.5743 47.0167 24.2889 45.6558 21.8665 43.2335C19.4442 40.8111 18.0833 37.5257 18.0833 34.1V25.5853C18.0833 22.1596 19.4442 18.8742 21.8665 16.4519C24.2889 14.0295 27.5743 12.6687 31 12.6687C34.4257 12.6687 37.7111 14.0295 40.1334 16.4519C42.5558 18.8742 43.9166 22.1596 43.9166 25.5853V34.1C43.9166 37.5257 42.5558 40.8111 40.1334 43.2335C37.7111 45.6558 34.4257 47.0167 31 47.0167Z" fill="#FFD8C9"/>
<path d="M45.2031 25.3786V24.49C45.2031 16.7658 39.153 10.2248 31.4288 10.0233C29.5313 9.96742 27.6417 10.2922 25.8718 10.9785C24.1018 11.6648 22.4872 12.6987 21.1234 14.0192C19.7595 15.3398 18.674 16.9201 17.9309 18.667C17.1878 20.4139 16.8022 22.2919 16.7968 24.1903V24.0663C16.7968 24.3404 16.9057 24.6032 17.0995 24.797C17.2933 24.9908 17.5561 25.0997 17.8302 25.0997H22.9297C23.7942 25.0993 24.6443 24.8773 25.3986 24.4549C26.153 24.0324 26.7865 23.4237 27.2387 22.6868C28.272 24.831 30.3645 25.7868 31.5838 26.1743C32.0854 26.3319 32.6081 26.4121 33.1338 26.412H44.1491C44.2866 26.4147 44.4232 26.39 44.5509 26.3393C44.6787 26.2886 44.7951 26.213 44.8932 26.1167C44.9914 26.0205 45.0693 25.9057 45.1226 25.7789C45.1758 25.6522 45.2032 25.5161 45.2031 25.3786Z" fill="white"/>
<path opacity="0.1" d="M45.2031 25.3786V24.49C45.2031 16.7658 39.153 10.2248 31.4288 10.0233C29.5313 9.96742 27.6417 10.2922 25.8718 10.9785C24.1018 11.6648 22.4872 12.6987 21.1234 14.0192C19.7595 15.3398 18.674 16.9201 17.9309 18.667C17.1878 20.4139 16.8022 22.2919 16.7968 24.1903V24.0663C16.7968 24.3404 16.9057 24.6032 17.0995 24.797C17.2933 24.9908 17.5561 25.0997 17.8302 25.0997H22.9297C23.7942 25.0993 24.6443 24.8773 25.3986 24.4549C26.153 24.0324 26.7865 23.4237 27.2387 22.6868C28.272 24.831 30.3645 25.7868 31.5838 26.1743C32.0854 26.3319 32.6081 26.4121 33.1338 26.412H44.1491C44.2866 26.4147 44.4232 26.39 44.5509 26.3393C44.6787 26.2886 44.7951 26.213 44.8932 26.1167C44.9914 26.0205 45.0693 25.9057 45.1226 25.7789C45.1758 25.6522 45.2032 25.5161 45.2031 25.3786Z" fill="#356CB6"/>
<path d="M30.4833 20.15C31.7853 22.847 33.7848 23.2965 35.4433 23.2965H41.6433" stroke="white" stroke-width="1.03333" stroke-miterlimit="10" stroke-linecap="round"/>
<path d="M31 33.9708V37.3291" stroke="#FBC0AA" stroke-width="2.58333" stroke-linecap="round" stroke-linejoin="round"/>
<path opacity="0.2" d="M25.6422 27.3833H20.863" stroke="#515570" stroke-width="1.03333" stroke-linecap="round" stroke-linejoin="round"/>
<path opacity="0.2" d="M41.1421 27.3833H36.363" stroke="#515570" stroke-width="1.03333" stroke-linecap="round" stroke-linejoin="round"/>
<path d="M31 42.3666C33.5833 42.3666 34.6167 40.8166 34.6167 40.8166H27.3833C27.3833 40.8166 28.4167 42.3666 31 42.3666Z" fill="#F85565"/>
<path opacity="0.7" d="M36.1666 33.0666H38.2333" stroke="#515570" stroke-width="1.20383" stroke-linecap="round" stroke-linejoin="round"/>
<path opacity="0.7" d="M23.7667 33.0666H25.8333" stroke="#515570" stroke-width="1.20383" stroke-linecap="round" stroke-linejoin="round"/>
<path opacity="0.2" d="M24.8 35.1333C26.7974 35.1333 28.4167 33.5141 28.4167 31.5166C28.4167 29.5192 26.7974 27.9 24.8 27.9C22.8026 27.9 21.1833 29.5192 21.1833 31.5166C21.1833 33.5141 22.8026 35.1333 24.8 35.1333Z" fill="#00ADFE"/>
<path d="M24.8 35.1333C26.7974 35.1333 28.4167 33.5141 28.4167 31.5166C28.4167 29.5192 26.7974 27.9 24.8 27.9C22.8026 27.9 21.1833 29.5192 21.1833 31.5166C21.1833 33.5141 22.8026 35.1333 24.8 35.1333Z" stroke="#515570" stroke-width="1.20383" stroke-linecap="round" stroke-linejoin="round"/>
<path opacity="0.2" d="M37.2 35.1333C39.1974 35.1333 40.8166 33.5141 40.8166 31.5166C40.8166 29.5192 39.1974 27.9 37.2 27.9C35.2026 27.9 33.5833 29.5192 33.5833 31.5166C33.5833 33.5141 35.2026 35.1333 37.2 35.1333Z" fill="#00ADFE"/>
<path d="M37.2 35.1333C39.1974 35.1333 40.8166 33.5141 40.8166 31.5166C40.8166 29.5192 39.1974 27.9 37.2 27.9C35.2026 27.9 33.5833 29.5192 33.5833 31.5166C33.5833 33.5141 35.2026 35.1333 37.2 35.1333Z" stroke="#515570" stroke-width="1.20383" stroke-linecap="round" stroke-linejoin="round"/>
<path d="M28.4167 31.5167H33.5833" stroke="#515570" stroke-width="1.20383" stroke-linecap="round" stroke-linejoin="round"/>
<path opacity="0.1" d="M24.8 41.3333L27.3833 37.7166" stroke="#515570" stroke-width="1.03333" stroke-linecap="round" stroke-linejoin="round"/>
<path opacity="0.1" d="M36.6833 41.3333L34.1 37.7166" stroke="#515570" stroke-width="1.03333" stroke-linecap="round" stroke-linejoin="round"/>
</svg>
