<svg width="24" height="24" viewBox="0 0 24 24" fill="none" xmlns="http://www.w3.org/2000/svg">
<path d="M19.7419 2.59459H17.8065V0.972973C17.8065 0.714928 17.6841 0.467442 17.4663 0.284977C17.2486 0.102512 16.9531 0 16.6452 0C16.3372 0 16.0418 0.102512 15.8241 0.284977C15.6062 0.467442 15.4839 0.714928 15.4839 0.972973V2.59459H8.51613V0.972973C8.51613 0.714928 8.39377 0.467442 8.17599 0.284977C7.95821 0.102512 7.66283 0 7.35484 0C7.04685 0 6.75146 0.102512 6.53368 0.284977C6.3159 0.467442 6.19355 0.714928 6.19355 0.972973V2.59459H4.25806C3.12875 2.59459 2.0457 2.97046 1.24716 3.63952C0.448614 4.30856 0 5.21598 0 6.16216V20.4324C0 21.3785 0.448614 22.286 1.24716 22.955C2.0457 23.6242 3.12875 24 4.25806 24H19.7419C20.8712 24 21.9543 23.6242 22.7528 22.955C23.5514 22.286 24 21.3785 24 20.4324V6.16216C24 5.21598 23.5514 4.30856 22.7528 3.63952C21.9543 2.97046 20.8712 2.59459 19.7419 2.59459ZM4.25806 4.54054H6.19355V6.16216C6.19355 6.42021 6.3159 6.66769 6.53368 6.85016C6.75146 7.03262 7.04685 7.13513 7.35484 7.13513C7.66283 7.13513 7.95821 7.03262 8.17599 6.85016C8.39377 6.66769 8.51613 6.42021 8.51613 6.16216V4.54054H15.4839V6.16216C15.4839 6.42021 15.6062 6.66769 15.8241 6.85016C16.0418 7.03262 16.3372 7.13513 16.6452 7.13513C16.9531 7.13513 17.2486 7.03262 17.4663 6.85016C17.6841 6.66769 17.8065 6.42021 17.8065 6.16216V4.54054H19.7419C20.2552 4.54054 20.7476 4.71139 21.1106 5.01551C21.4735 5.31962 21.6774 5.73208 21.6774 6.16216V9.72973H2.32258V6.16216C2.32258 5.73208 2.5265 5.31962 2.88948 5.01551C3.25245 4.71139 3.74474 4.54054 4.25806 4.54054ZM19.7419 22.0541H4.25806C3.74474 22.0541 3.25245 21.8832 2.88948 21.5791C2.5265 21.275 2.32258 20.8625 2.32258 20.4324V11.6757H21.6774V20.4324C21.6774 20.8625 21.4735 21.275 21.1106 21.5791C20.7476 21.8832 20.2552 22.0541 19.7419 22.0541Z" fill="#FF8A00"/>
<path d="M15.0968 16.2162H13.1613V14.5946C13.1613 14.3366 13.039 14.089 12.8211 13.9066C12.6034 13.7241 12.308 13.6216 12 13.6216C11.692 13.6216 11.3966 13.7241 11.1789 13.9066C10.961 14.089 10.8387 14.3366 10.8387 14.5946V16.2162H8.90323C8.59524 16.2162 8.29986 16.3187 8.08208 16.5012C7.8643 16.6836 7.74194 16.9311 7.74194 17.1892C7.74194 17.4472 7.8643 17.6947 8.08208 17.8771C8.29986 18.0597 8.59524 18.1622 8.90323 18.1622H10.8387V19.7838C10.8387 20.0418 10.961 20.2893 11.1789 20.4717C11.3966 20.6543 11.692 20.7567 12 20.7567C12.308 20.7567 12.6034 20.6543 12.8211 20.4717C13.039 20.2893 13.1613 20.0418 13.1613 19.7838V18.1622H15.0968C15.4048 18.1622 15.7002 18.0597 15.9179 17.8771C16.1358 17.6947 16.2581 17.4472 16.2581 17.1892C16.2581 16.9311 16.1358 16.6836 15.9179 16.5012C15.7002 16.3187 15.4048 16.2162 15.0968 16.2162Z" fill="#FF8A00"/>
</svg>
