<svg width="24" height="31" viewBox="0 0 24 31" fill="none" xmlns="http://www.w3.org/2000/svg">
<path d="M9.33337 29C9.50273 29.5769 9.85439 30.0835 10.3357 30.4438C10.817 30.8041 11.4021 30.9989 12.0034 30.9989C12.6046 30.9989 13.1897 30.8041 13.671 30.4438C14.1524 30.0835 14.504 29.5769 14.6734 29" fill="#FFCE53"/>
<path d="M11.9996 4V1V4Z" fill="#FFCE53"/>
<path d="M11.9996 4V1" stroke="#FFB800" stroke-opacity="0.5" stroke-width="2" stroke-linecap="round" stroke-linejoin="round"/>
<path d="M12 3.99997C14.6522 3.99997 17.1957 5.05354 19.0711 6.9289C20.9464 8.80427 22 11.3478 22 14C22 23.3946 24 25 24 25H0C0 25 2 22.4453 2 14C2 11.3478 3.05357 8.80427 4.92893 6.9289C6.8043 5.05354 9.34784 3.99997 12 3.99997Z" fill="#FFCE53"/>
</svg>
