<svg width="30" height="16" viewBox="0 0 30 16" fill="none" xmlns="http://www.w3.org/2000/svg">
<path d="M28.9592 15.3671C29.1023 15.3675 29.244 15.3383 29.3752 15.2814C29.5065 15.2244 29.6246 15.1409 29.7221 15.0362C29.8195 14.9314 29.8943 14.8076 29.9416 14.6725C29.9889 14.5375 30.0078 14.3941 29.9971 14.2514C29.447 6.56077 23.2509 0.240131 15.4669 0.00660955C7.33512 -0.23729 0.583755 6.30131 0.00254624 14.2566C-0.00743835 14.3989 0.0120104 14.5417 0.0596791 14.6761C0.107348 14.8105 0.182214 14.9337 0.279603 15.0379C0.376992 15.1421 0.494814 15.2251 0.625716 15.2818C0.756618 15.3384 0.897789 15.3675 1.04042 15.3671H28.9592Z" fill="#4BC190"/>
</svg>
