<svg width="9" height="5" viewBox="0 0 9 5" fill="none" xmlns="http://www.w3.org/2000/svg">
<path d="M8.50115 0C8.57117 0.00402797 8.63969 0.021932 8.70273 0.0526742C8.76577 0.0834164 8.82207 0.126384 8.86836 0.179076C8.91465 0.231768 8.95001 0.293134 8.97237 0.35961C8.99474 0.426086 9.00367 0.496344 8.99864 0.566301C8.86759 1.66734 8.3373 2.68209 7.50821 3.41835C6.67911 4.15461 5.6088 4.56125 4.49998 4.56125C3.39117 4.56125 2.32085 4.15461 1.49176 3.41835C0.66267 2.68209 0.132379 1.66734 0.00132454 0.566301C-0.00369425 0.495495 0.0055818 0.424404 0.0286005 0.357256C0.0516192 0.290108 0.0879099 0.228278 0.135314 0.175442C0.182718 0.122607 0.240264 0.0798461 0.304532 0.0497064C0.368799 0.0195667 0.438474 0.00266171 0.509408 0H8.50115Z" fill="#393C54"/>
</svg>
